<?xml version="1.0" standalone="no"?>
<!DOCTYPE svg PUBLIC "-//W3C//DTD SVG 20010904//EN"
 "http://www.w3.org/TR/2001/REC-SVG-20010904/DTD/svg10.dtd">
<svg version="1.0" xmlns="http://www.w3.org/2000/svg"
 width="1024.000000pt" height="1024.000000pt" viewBox="0 0 1024.000000 1024.000000"
 preserveAspectRatio="xMidYMid meet">
<metadata>
Created by potrace 1.14, written by Peter Selinger 2001-2017
</metadata>
<g transform="translate(0.000000,1024.000000) scale(0.100000,-0.100000)"
fill="#000000" stroke="none">
<path d="M0 5120 l0 -5120 5120 0 5120 0 0 5120 0 5120 -5120 0 -5120 0 0
-5120z m4262 4817 c15 -2 36 -11 45 -20 12 -10 47 -18 103 -22 47 -4 103 -13
125 -20 60 -19 123 -26 130 -15 11 17 33 11 68 -20 19 -16 38 -30 41 -30 4 0
16 -9 28 -20 12 -10 25 -17 29 -14 5 3 23 -3 41 -13 38 -19 55 -25 83 -24 11
0 32 -12 47 -26 16 -15 28 -23 28 -18 0 4 16 -8 36 -29 19 -20 40 -34 45 -31
5 4 12 -1 15 -10 8 -20 103 -67 121 -61 7 3 13 0 13 -8 0 -15 39 -50 86 -78
21 -12 31 -25 27 -34 -3 -8 1 -14 8 -14 8 0 23 -13 33 -27 17 -23 17 -26 3
-20 -12 4 -17 1 -17 -9 0 -10 6 -14 14 -11 12 5 56 -20 76 -43 18 -20 64 -49
71 -44 5 3 9 -1 9 -8 0 -7 13 -29 28 -48 16 -19 35 -48 44 -65 8 -16 31 -59
52 -93 20 -35 36 -68 36 -73 0 -5 4 -9 8 -9 5 0 18 -8 29 -17 16 -14 21 -31
22 -76 1 -82 8 -90 87 -105 38 -7 72 -18 76 -25 6 -9 10 -9 16 -1 13 20 60 24
237 25 157 0 178 -2 221 -21 31 -15 61 -21 90 -18 29 2 44 -1 44 -8 0 -17 28
-26 86 -29 48 -2 134 -31 134 -46 0 -4 14 -10 30 -14 17 -4 30 -13 30 -20 0
-17 22 -25 49 -18 13 3 21 1 21 -6 0 -7 -6 -9 -12 -6 -7 4 -2 -3 11 -14 13
-12 31 -21 41 -21 10 0 27 -3 37 -6 13 -4 15 -3 4 4 -10 7 -10 11 -1 17 7 4
16 2 20 -5 4 -7 15 -10 25 -7 13 6 15 3 9 -15 -5 -16 -3 -20 10 -15 20 8 33
-12 15 -25 -11 -7 -9 -8 6 -7 29 3 75 -18 75 -35 0 -8 9 -17 20 -21 11 -3 27
-22 36 -41 9 -19 21 -34 26 -34 5 0 7 -4 3 -10 -3 -5 6 -8 23 -6 29 4 114 -47
177 -106 17 -15 33 -28 36 -28 4 0 14 -18 22 -39 9 -21 29 -48 45 -59 15 -11
39 -41 52 -67 13 -25 40 -60 61 -76 36 -29 104 -132 129 -199 7 -19 19 -42 25
-50 11 -14 15 -34 19 -87 0 -14 7 -22 16 -20 8 1 15 -4 15 -11 0 -7 5 -16 10
-20 14 -10 35 -59 35 -82 0 -11 5 -20 11 -20 6 0 9 -9 6 -20 -3 -11 -1 -20 4
-20 5 0 9 -8 9 -18 0 -10 5 -23 12 -30 8 -8 8 -15 0 -25 -10 -11 -8 -19 6 -38
14 -18 21 -48 25 -119 3 -52 11 -96 17 -98 5 -2 10 -13 10 -24 0 -14 5 -18 15
-14 8 3 15 0 15 -7 0 -27 43 -13 63 20 10 18 22 33 25 33 33 0 233 -96 245
-117 6 -9 13 -11 20 -5 40 31 160 2 226 -54 21 -18 41 -30 45 -27 3 3 14 -3
24 -14 20 -24 125 -83 147 -83 21 0 19 -20 -2 -20 -14 -1 -12 -4 7 -15 17 -9
27 -10 31 -3 10 17 38 1 49 -26 5 -13 18 -27 29 -31 12 -3 21 -11 21 -16 0 -5
18 -16 40 -25 27 -11 40 -22 40 -35 0 -10 6 -19 14 -19 16 0 66 -69 66 -92 0
-9 9 -20 20 -23 28 -9 46 -45 29 -56 -18 -11 -4 -23 42 -38 28 -9 38 -19 42
-39 3 -15 17 -40 31 -56 14 -17 23 -33 20 -37 -2 -4 3 -14 11 -22 8 -9 15 -25
15 -36 0 -12 6 -21 16 -21 11 0 14 -6 9 -20 -4 -14 -2 -18 7 -15 21 8 21 -55
0 -72 -15 -13 -15 -14 9 -9 23 5 26 1 42 -47 19 -61 27 -106 33 -202 4 -48 10
-74 22 -82 8 -7 11 -13 5 -13 -13 0 -4 -42 11 -52 7 -5 4 -8 -6 -8 -10 0 -18
-7 -18 -15 0 -8 5 -15 10 -15 6 0 9 -3 9 -7 -4 -25 2 -43 12 -37 7 4 10 1 7
-7 -3 -8 -12 -13 -19 -12 -9 2 -15 -5 -15 -17 0 -12 7 -20 16 -20 34 0 40 -21
14 -49 -20 -21 -22 -28 -11 -36 14 -10 16 -62 4 -82 -4 -6 -1 -13 5 -16 10 -3
10 -7 -1 -20 -7 -9 -11 -26 -8 -37 4 -14 0 -20 -11 -20 -14 0 -14 -2 -3 -9 16
-10 6 -52 -12 -48 -7 1 -11 -7 -9 -18 8 -61 9 -101 4 -110 -3 -5 -8 -30 -10
-55 -2 -25 -8 -48 -14 -51 -6 -4 -7 -16 -4 -27 7 -22 -12 -74 -25 -67 -4 3
-13 -8 -20 -24 -7 -17 -24 -35 -37 -40 -20 -10 -22 -16 -16 -46 4 -23 2 -35
-5 -35 -6 0 -11 -11 -11 -24 0 -14 -9 -31 -19 -38 -19 -13 -52 -63 -71 -105
-5 -13 -18 -23 -30 -23 -33 0 -35 -1 -43 -15 -5 -9 -1 -25 9 -40 15 -23 15
-25 0 -25 -28 0 -78 -46 -74 -68 4 -21 -59 -82 -77 -75 -10 3 -15 -1 -15 -14
0 -17 -103 -95 -152 -115 -10 -4 -18 -11 -18 -16 0 -8 -52 -42 -65 -42 -3 0
-3 5 0 10 3 6 1 10 -4 10 -6 0 -11 -4 -11 -10 0 -12 -39 -37 -65 -42 -11 -2
-27 -15 -37 -29 -18 -30 -70 -59 -103 -59 -11 0 -25 -4 -30 -8 -19 -15 -86
-33 -113 -31 -16 2 -46 -7 -72 -23 -29 -16 -60 -26 -88 -26 -24 -1 -54 -8 -67
-16 -17 -11 -25 -12 -28 -3 -2 8 -11 7 -30 -6 -16 -10 -36 -15 -49 -12 -13 3
-1357 7 -2987 8 -2961 2 -2964 2 -2971 23 -7 17 -23 22 -106 32 -82 10 -103
17 -125 38 -15 14 -35 25 -45 24 -11 -1 -36 -2 -56 -1 -28 1 -36 5 -32 15 3 8
13 17 22 20 10 3 -2 3 -25 1 -24 -3 -43 0 -43 5 0 6 -11 10 -25 10 -14 0 -30
9 -37 21 -12 18 -105 69 -128 69 -6 0 -10 5 -10 10 0 6 -6 10 -12 10 -7 0 -24
9 -38 20 -14 11 -33 20 -43 20 -10 0 -34 16 -52 36 -19 20 -39 33 -44 30 -6
-4 -18 5 -27 19 -9 14 -23 25 -31 25 -8 0 -12 4 -9 8 3 5 -3 15 -12 24 -9 9
-28 30 -41 47 -13 17 -27 31 -32 31 -16 0 -109 103 -102 113 4 6 -2 8 -15 5
-12 -4 -22 -2 -22 3 0 5 -5 9 -11 9 -14 0 -39 26 -39 40 0 7 -12 26 -26 42
-16 20 -22 34 -15 41 11 11 3 39 -10 31 -5 -3 -12 3 -16 13 -8 23 -63 95 -81
106 -7 5 -10 17 -7 27 3 11 2 28 -4 38 -7 13 -7 23 2 31 7 7 8 12 2 11 -22 -5
-35 1 -35 14 0 7 -7 19 -15 26 -8 7 -13 16 -10 20 3 5 1 19 -4 32 -8 17 -10
19 -10 5 -1 -15 -5 -16 -21 -7 -11 6 -20 18 -20 28 0 9 -9 41 -20 70 -11 29
-20 66 -20 83 0 16 -6 42 -14 58 -9 17 -11 32 -6 42 15 24 -8 146 -34 179 -16
19 -37 91 -30 101 3 5 0 17 -6 28 -6 13 -7 22 0 26 6 4 5 13 -2 25 -9 14 -9
25 0 44 8 18 8 27 0 32 -7 5 -9 31 -5 78 9 101 17 137 31 129 6 -3 6 0 -1 8
-19 20 -16 46 9 63 22 16 29 42 28 108 0 21 7 70 16 110 9 40 16 83 15 95 0
13 4 22 11 20 7 -1 12 12 14 31 1 18 9 41 18 51 9 9 19 32 22 49 4 18 10 32
14 32 4 0 13 15 21 33 7 17 16 34 19 37 15 12 71 101 109 175 23 44 49 83 57
88 8 4 14 13 14 20 1 15 56 77 70 77 5 0 10 4 10 9 0 6 19 24 42 40 24 17 52
44 63 61 11 16 25 30 31 30 7 0 19 11 28 25 9 14 23 25 31 25 8 0 15 4 15 8 0
14 69 87 83 87 8 0 26 14 41 30 23 25 30 27 46 17 27 -17 32 -15 21 7 -15 26
30 55 82 53 21 -1 36 2 33 6 -3 5 19 19 49 33 42 18 55 29 55 45 0 16 8 23 31
28 17 3 35 3 40 0 5 -3 9 -1 9 5 0 17 72 31 129 25 52 -5 53 -4 47 19 -5 21
-1 27 25 37 25 11 29 17 25 37 -7 25 8 32 18 8 3 -8 14 -15 25 -15 11 0 21 -5
23 -11 3 -8 9 -7 19 3 10 11 34 15 77 14 34 0 62 2 62 6 0 14 83 31 103 21 4
-3 3 -11 -4 -19 -9 -11 -9 -14 0 -14 7 0 10 -4 7 -8 -2 -4 4 -8 14 -8 10 0 16
4 14 8 -9 15 17 48 38 48 19 0 20 4 14 53 -20 157 -25 255 -25 470 -1 184 2
238 12 234 14 -4 37 16 37 35 0 7 6 23 14 34 9 13 14 51 15 113 1 52 5 99 10
105 5 6 11 20 14 31 3 15 5 13 6 -8 1 -35 25 -32 29 4 6 49 44 129 60 127 8
-2 17 3 20 11 3 10 0 12 -13 7 -14 -5 -16 -4 -7 7 7 8 9 17 6 20 -4 4 0 17 8
29 8 13 18 36 22 51 5 22 11 27 26 22 21 -7 44 24 38 53 -2 9 13 44 34 76 21
33 38 67 38 77 0 9 3 19 8 21 4 2 17 16 30 32 14 19 22 23 22 13 0 -8 -3 -17
-7 -20 -5 -2 -2 -2 5 0 8 1 19 3 26 3 7 0 12 10 12 23 -1 17 4 21 20 19 16 -2
23 4 28 23 4 14 11 25 16 25 6 0 10 9 10 20 0 11 5 20 10 20 6 0 10 -6 10 -12
0 -18 25 21 37 57 9 28 39 53 96 77 19 9 27 20 27 37 0 13 3 22 6 18 4 -3 23
5 43 18 41 29 56 32 47 10 -9 -24 22 -18 50 10 14 14 30 25 37 25 24 1 60 37
54 54 -7 17 -27 22 -27 6 0 -5 -5 -10 -11 -10 -18 0 9 27 43 44 16 8 36 12 44
9 8 -3 20 -1 27 5 6 5 31 12 54 15 23 3 50 12 58 21 9 8 32 23 52 33 20 9 38
24 40 34 3 9 14 20 26 23 29 7 34 -1 11 -19 -16 -12 -16 -14 -3 -15 9 0 24 9
33 19 12 13 30 19 59 19 23 0 49 2 57 5 8 4 40 8 71 10 30 2 60 6 65 9 5 2 29
6 54 7 26 1 50 8 56 17 7 9 34 16 69 19 32 2 59 6 61 8 4 4 74 0 126 -6z
m5248 -4267 c0 -5 -4 -10 -10 -10 -5 0 -10 5 -10 10 0 6 5 10 10 10 6 0 10 -4
10 -10z m-8753 -712 c-3 -8 -6 -5 -6 6 -1 11 2 17 5 13 3 -3 4 -12 1 -19z
m4907 -2155 c-3 -98 -6 -194 -6 -213 7 -211 11 -270 17 -302 10 -52 0 -82 -30
-96 -53 -24 -58 -19 -50 58 8 81 8 438 -1 592 l-5 107 28 15 c56 30 55 32 47
-161z m-2871 -28 c4 -9 -11 -27 -42 -50 -27 -19 -51 -35 -55 -35 -27 0 47 98
75 99 9 1 19 -6 22 -14z m852 -41 c50 -8 104 -21 120 -28 141 -61 202 -97 190
-116 -3 -5 -1 -11 4 -15 6 -3 13 -25 16 -48 5 -34 2 -53 -16 -88 -21 -42 -131
-159 -150 -159 -4 0 -32 -14 -61 -31 -29 -17 -78 -38 -108 -46 -59 -15 -242
-27 -272 -17 -21 6 -24 24 -4 24 32 0 38 28 38 192 0 90 -4 182 -10 205 -5 23
-7 54 -4 69 3 18 0 29 -12 36 -9 5 -16 13 -16 18 0 22 167 25 285 4z m1745 2
c44 -9 115 -37 129 -51 20 -20 18 -72 -5 -95 -10 -11 -28 -29 -39 -41 -34 -36
-171 -89 -231 -89 -17 0 -46 -5 -64 -11 l-32 -12 5 -113 6 -114 -39 -20 c-37
-19 -60 -14 -45 9 14 24 21 376 8 453 -3 22 -12 42 -19 45 -23 9 -16 23 19 38
24 11 62 14 157 10 69 -2 136 -6 150 -9z m-2877 -3 c36 -7 34 -28 -4 -43 -26
-11 -38 -11 -79 4 -59 21 -126 12 -194 -28 -55 -32 -89 -76 -105 -136 -19 -71
-17 -103 7 -163 7 -16 12 -31 12 -35 1 -18 43 -54 100 -88 60 -35 65 -36 139
-32 44 3 90 12 109 22 l33 17 -6 71 c-3 40 -7 73 -9 75 -1 2 -23 5 -47 7 -24
2 -46 4 -48 5 -2 1 2 8 9 16 10 12 30 15 89 13 l76 -3 1 -72 c1 -47 -2 -73 -9
-73 -7 0 -7 -4 1 -12 7 -7 12 -27 12 -45 0 -31 -9 -38 -41 -35 -3 1 -50 -5
-104 -13 -139 -19 -247 -6 -305 37 -34 26 -81 89 -74 100 3 5 -1 17 -10 27
-11 12 -16 38 -17 84 -2 144 109 273 256 298 47 8 168 9 208 2z m465 -38 c2
-15 -1 -47 -7 -71 -6 -23 -8 -49 -5 -58 8 -22 54 -28 109 -16 63 14 78 1 39
-35 -27 -25 -34 -26 -86 -20 l-58 6 0 -35 c0 -19 -5 -38 -11 -42 -8 -4 -8 -9
0 -17 15 -15 14 -67 -1 -68 -10 0 -10 -2 0 -6 6 -2 12 -17 12 -33 0 -44 17
-80 38 -80 11 0 36 14 57 30 40 32 62 28 51 -8 -7 -21 -58 -46 -129 -61 -33
-8 -47 -7 -65 5 -22 14 -23 21 -22 127 1 62 1 129 1 151 l-1 38 -40 -4 c-23
-2 -40 1 -40 7 1 22 29 45 55 45 l27 0 -3 72 c-4 70 -4 72 26 89 38 22 49 19
53 -16z m-215 -156 c-5 -50 -2 -273 3 -294 4 -17 -2 -28 -24 -44 -17 -11 -35
-21 -41 -21 -13 0 -14 50 -1 104 8 36 -2 183 -16 228 -4 12 5 24 28 38 40 24
54 21 51 -11z m1531 24 c4 -5 11 -8 14 -8 33 -2 86 -61 97 -108 l7 -27 -154 0
c-188 0 -198 -4 -178 -72 17 -57 26 -69 74 -102 59 -40 164 -31 215 18 32 30
51 33 51 8 0 -49 -65 -79 -191 -89 -70 -5 -80 -3 -125 21 -70 39 -89 68 -89
142 0 54 4 65 35 106 19 25 53 58 76 72 55 35 150 57 168 39z m251 -75 c31
-96 85 -210 102 -215 6 -2 18 15 28 39 9 24 22 49 28 56 6 8 12 21 12 30 4 35
36 146 46 159 12 13 49 18 49 6 0 -16 -65 -185 -102 -263 -37 -79 -68 -119
-93 -120 -12 0 -76 131 -79 163 -1 4 -6 11 -12 15 -6 4 -15 18 -18 32 -4 14
-21 52 -38 84 l-31 59 23 19 c42 34 55 25 85 -64z m1520 59 c6 -7 17 -16 26
-19 20 -8 29 -48 34 -143 2 -38 6 -95 9 -126 5 -53 4 -57 -20 -68 -34 -15 -54
-14 -54 4 0 18 -1 18 -36 5 -45 -18 -157 -30 -195 -21 -41 9 -73 37 -81 69
-14 53 103 144 202 157 112 15 110 14 110 44 0 38 -45 78 -95 83 -32 4 -48 0
-83 -23 -31 -21 -50 -27 -68 -23 -34 9 -38 21 -12 38 64 42 237 57 263 23z
m243 -4 l3 -23 27 20 c55 40 219 34 241 -9 5 -9 11 -85 15 -168 l6 -153 -31
-16 c-40 -20 -53 -8 -42 37 4 19 6 80 3 136 -7 135 -16 148 -106 140 -35 -4
-78 -14 -95 -22 l-31 -17 4 -134 4 -134 -29 -10 c-34 -11 -51 -5 -43 17 11 27
7 282 -3 302 -9 16 -6 23 16 41 32 25 57 22 61 -7z m460 0 l3 -23 27 20 c55
40 219 34 241 -9 5 -9 11 -85 15 -168 l6 -153 -31 -16 c-40 -20 -53 -8 -42 37
4 19 6 80 3 136 -7 135 -16 148 -106 140 -35 -4 -78 -14 -95 -22 l-31 -17 4
-134 4 -134 -29 -10 c-34 -11 -51 -5 -43 17 11 27 7 282 -3 302 -9 16 -6 23
16 41 32 25 57 22 61 -7z m636 20 c4 -5 11 -8 14 -8 33 -2 86 -61 97 -108 l7
-27 -154 0 c-188 0 -198 -4 -178 -72 17 -57 26 -69 74 -102 59 -40 164 -31
215 18 32 30 51 33 51 8 0 -49 -65 -79 -191 -89 -70 -5 -80 -3 -125 21 -70 39
-89 68 -89 142 0 54 4 65 35 106 19 25 53 58 76 72 55 35 150 57 168 39z m256
-21 l5 -21 45 21 c42 19 130 31 158 20 20 -7 14 -38 -10 -50 -16 -9 -33 -9
-55 -3 -40 12 -105 -4 -130 -31 -15 -17 -17 -37 -16 -148 l2 -128 -31 -11
c-17 -6 -33 -11 -34 -11 -7 0 2 166 9 177 4 6 3 14 -3 18 -5 3 -9 30 -9 59 1
29 -1 61 -4 72 -8 22 0 36 28 52 26 15 38 10 45 -16z"/>
<path d="M3714 9838 c3 -13 6 -32 6 -42 0 -30 9 -13 14 27 4 29 2 37 -11 37
-11 0 -14 -6 -9 -22z"/>
<path d="M3565 9790 c-3 -5 -1 -10 4 -10 6 0 11 5 11 10 0 6 -2 10 -4 10 -3 0
-8 -4 -11 -10z"/>
<path d="M2595 8980 c-3 -5 -1 -10 4 -10 6 0 11 5 11 10 0 6 -2 10 -4 10 -3 0
-8 -4 -11 -10z"/>
<path d="M2530 8819 c0 -5 5 -7 10 -4 6 3 10 8 10 11 0 2 -4 4 -10 4 -5 0 -10
-5 -10 -11z"/>
<path d="M6481 8711 c-27 -7 -41 -31 -19 -31 17 0 55 26 48 33 -3 2 -16 1 -29
-2z"/>
<path d="M2195 7560 c3 -5 8 -10 11 -10 2 0 4 5 4 10 0 6 -5 10 -11 10 -5 0
-7 -4 -4 -10z"/>
<path d="M2546 7514 c-5 -14 -4 -15 9 -4 17 14 19 20 6 20 -5 0 -12 -7 -15
-16z"/>
<path d="M7873 7228 c-20 -26 -23 -37 -12 -44 8 -4 9 -3 5 4 -4 7 -3 12 2 12
10 0 25 30 19 37 -2 2 -9 -2 -14 -9z"/>
<path d="M4532 7129 c-9 -14 -20 -19 -33 -16 -13 4 -19 0 -19 -13 0 -10 -7
-23 -15 -30 -8 -7 -15 -16 -15 -21 0 -13 -33 -49 -41 -44 -12 8 3 -89 17 -110
8 -11 14 -27 14 -37 0 -10 5 -18 10 -18 6 0 10 -6 10 -14 0 -7 9 -20 19 -27
18 -14 19 -49 25 -1079 3 -586 6 -1089 6 -1117 l0 -53 95 0 95 0 0 674 0 675
54 6 c30 4 59 4 64 1 6 -3 26 1 46 9 27 12 35 12 34 3 -2 -9 16 -13 62 -14 99
-3 169 -11 183 -21 7 -5 32 -16 57 -23 25 -7 49 -16 55 -19 5 -2 19 -6 31 -7
16 -2 21 2 17 12 -3 8 0 14 6 14 6 0 11 -11 11 -24 0 -19 7 -26 30 -31 17 -4
28 -10 25 -15 -5 -7 7 -9 81 -9 17 0 37 -7 44 -16 7 -8 19 -15 26 -15 8 0 14
-4 14 -10 0 -5 10 -10 22 -10 12 0 29 -7 38 -15 9 -8 26 -16 39 -18 12 -2 26
-9 31 -17 4 -7 12 -10 18 -6 6 3 23 1 39 -5 15 -6 41 -11 58 -11 16 1 34 -3
40 -7 17 -14 82 -32 127 -35 24 -2 70 -8 102 -14 32 -6 64 -8 70 -4 6 4 31 8
56 9 151 9 229 22 206 35 -20 11 -21 38 -1 38 9 0 18 7 21 15 4 8 10 12 15 9
5 -3 9 0 9 6 0 7 6 8 19 0 28 -14 29 -14 36 23 4 17 10 34 14 37 32 26 34 54
39 538 3 429 2 486 -12 507 -15 23 -15 24 1 19 17 -5 17 -5 1 6 -19 11 -68 4
-68 -11 0 -5 -6 -9 -14 -9 -8 0 -28 -13 -44 -30 -33 -33 -57 -38 -66 -15 -6
17 -31 11 -59 -14 -20 -16 -117 -23 -117 -7 0 5 -7 3 -15 -4 -11 -9 -18 -10
-29 -1 -9 8 -22 8 -39 2 -16 -6 -28 -6 -34 0 -10 10 -46 19 -83 20 -26 2 -95
23 -101 31 -3 4 -20 10 -38 12 -18 2 -36 8 -40 12 -3 5 -17 14 -31 20 -34 15
-129 62 -203 101 -34 17 -63 30 -65 28 -3 -3 -98 36 -134 56 -10 5 -27 9 -38
9 -11 0 -20 4 -20 8 0 4 -15 9 -32 10 -18 2 -42 9 -54 16 -11 8 -48 16 -80 18
-33 3 -64 6 -70 9 -13 6 -44 4 -77 -5 -19 -6 -37 -4 -53 4 -18 10 -37 11 -81
3 -33 -6 -59 -7 -61 -2 -5 12 -42 11 -42 -1 0 -5 -6 -10 -14 -10 -13 0 -133
39 -166 53 -10 5 -20 0 -28 -14z m489 -72 c-8 -8 -11 -7 -11 4 0 20 13 34 18
19 3 -7 -1 -17 -7 -23z m-86 -87 c3 -5 1 -10 -4 -10 -6 0 -11 5 -11 10 0 6 2
10 4 10 3 0 8 -4 11 -10z m481 -35 c17 -16 14 -18 -10 -9 -9 3 -16 10 -16 15
0 13 9 11 26 -6z m-411 -105 c3 -5 2 -10 -4 -10 -5 0 -13 5 -16 10 -3 6 -2 10
4 10 5 0 13 -4 16 -10z m-96 -10 c29 15 52 12 49 -6 -2 -10 3 -19 11 -22 8 -2
11 -1 8 4 -3 5 10 14 29 20 19 6 37 7 40 3 3 -5 14 -9 25 -9 10 0 19 -4 19 -9
0 -13 37 -21 125 -26 61 -3 84 -8 95 -22 21 -25 57 -41 112 -48 25 -3 52 -13
58 -20 7 -8 22 -15 34 -15 33 -1 74 -44 68 -72 -1 -5 2 -8 7 -8 5 0 12 13 16
28 6 30 46 63 53 43 2 -6 10 -11 18 -11 9 0 14 -11 14 -31 0 -18 4 -28 10 -24
6 4 8 9 6 13 -7 12 22 45 33 38 6 -4 13 -22 17 -41 3 -19 11 -32 16 -29 5 3
12 -5 16 -17 6 -23 6 -23 12 5 5 28 6 29 22 12 10 -9 21 -17 25 -17 4 0 19 -9
32 -20 20 -18 28 -19 48 -10 16 7 30 8 42 2 10 -6 33 -8 51 -6 20 3 37 0 42
-8 6 -8 10 -9 16 -1 8 12 48 12 76 -1 14 -6 23 -3 33 11 12 16 15 17 23 4 8
-13 11 -12 24 5 14 19 15 19 35 1 22 -20 36 -71 28 -103 -3 -16 -5 -15 -15 7
-8 19 -11 21 -11 7 -1 -10 -6 -15 -11 -12 -6 4 -9 1 -8 -7 2 -7 -4 -12 -14
-10 -9 1 -19 -2 -22 -7 -7 -10 -133 -4 -186 9 -19 5 -47 7 -62 5 -18 -2 -28 1
-28 9 0 12 -48 41 -62 38 -14 -3 -47 50 -41 65 4 11 3 14 -6 9 -7 -5 -10 -15
-7 -23 5 -11 -1 -14 -22 -11 -19 2 -26 -1 -24 -11 2 -9 -3 -11 -13 -7 -9 3
-20 6 -25 6 -4 0 -6 9 -3 20 4 14 0 20 -11 20 -9 0 -19 7 -22 15 -4 8 -11 12
-18 8 -22 -14 -84 -12 -90 3 -4 10 -14 12 -29 9 -16 -4 -30 -1 -41 10 -9 9
-16 11 -16 5 0 -6 -4 -9 -9 -5 -5 3 -12 1 -16 -5 -11 -18 -27 1 -21 25 4 17 1
25 -11 27 -34 8 -51 -4 -58 -38 -3 -19 -10 -32 -14 -29 -5 2 -5 26 0 51 5 26
8 48 7 49 -2 1 -17 5 -34 8 -21 4 -31 2 -31 -6 1 -46 -4 -67 -19 -67 -11 0
-14 6 -9 20 3 11 2 20 -3 20 -5 0 -17 16 -26 35 -16 33 -46 49 -46 24 0 -6 -8
-1 -18 11 -23 28 -119 39 -128 15 -5 -11 -10 -13 -19 -5 -6 5 -15 7 -18 3 -4
-3 -7 4 -7 17 0 21 -3 22 -45 18 -25 -3 -45 -2 -45 2 0 4 -13 7 -30 6 -16 -1
-30 -5 -30 -10 0 -4 -15 -6 -32 -4 -20 3 -42 -1 -57 -10 -21 -15 -24 -14 -36
1 -16 22 -22 21 -28 -3 -9 -34 -39 -14 -35 24 5 47 50 65 134 54 41 -6 71 -5
83 2z m337 -38 c-12 -11 -18 7 -10 30 l8 23 4 -23 c2 -13 1 -26 -2 -30z m-111
-72 c-3 -5 -11 -10 -16 -10 -6 0 -7 5 -4 10 3 6 11 10 16 10 6 0 7 -4 4 -10z
m435 -36 c0 -8 -4 -12 -10 -9 -5 3 -10 10 -10 16 0 5 5 9 10 9 6 0 10 -7 10
-16z m690 -58 c0 -3 -4 -8 -10 -11 -5 -3 -10 -1 -10 4 0 6 5 11 10 11 6 0 10
-2 10 -4z m-820 -31 c0 -8 -4 -15 -10 -15 -5 0 -10 7 -10 15 0 8 5 15 10 15 6
0 10 -7 10 -15z m-369 -56 c11 -5 27 -8 37 -5 9 3 31 2 47 -3 17 -5 24 -10 18
-10 -7 -1 -13 -6 -13 -11 0 -6 11 -8 25 -6 14 3 25 0 25 -5 0 -6 6 -9 13 -6 6
2 22 -5 35 -17 18 -16 25 -18 31 -7 7 10 9 9 14 -3 4 -9 2 -16 -4 -16 -6 0 -7
-5 -3 -11 3 -6 16 -8 29 -5 13 3 39 -1 59 -9 19 -8 51 -15 70 -15 19 0 37 -4
41 -10 3 -5 12 -7 20 -3 9 3 15 -1 15 -8 1 -10 5 -8 15 5 9 11 18 15 27 10 7
-5 18 -9 23 -10 6 0 16 -2 23 -2 6 -1 12 -9 12 -17 0 -20 6 -19 31 6 20 20 22
20 40 3 10 -9 19 -25 19 -34 0 -24 22 -40 47 -34 12 3 27 -2 38 -13 10 -10 22
-19 27 -19 4 -1 11 -2 15 -3 3 0 -4 -10 -17 -21 -13 -11 -20 -23 -16 -27 4 -4
10 -3 14 3 15 23 51 35 71 24 13 -7 22 -7 26 0 9 14 45 -7 45 -26 0 -10 6 -14
15 -10 18 7 19 -3 3 -53 l-12 -38 -32 32 c-17 17 -34 38 -37 46 -3 8 -6 2 -6
-12 -1 -27 -31 -65 -31 -39 0 9 -4 9 -12 2 -10 -7 -18 -3 -31 14 -13 17 -14
24 -5 25 7 0 -7 8 -32 18 -25 10 -50 16 -57 14 -8 -3 -15 7 -19 26 -4 17 -10
32 -15 32 -5 1 -13 2 -19 3 -5 0 -15 7 -22 14 -16 16 -28 15 -28 -3 0 -17 -35
-21 -45 -4 -4 5 -12 8 -18 6 -7 -2 -18 3 -26 10 -11 12 -16 12 -30 -2 -23 -20
-29 -19 -33 8 -2 15 -11 23 -28 26 -14 1 -27 6 -30 11 -8 12 -50 22 -50 12 0
-17 -44 -22 -53 -7 -4 8 -17 15 -27 15 -10 0 -22 5 -26 11 -4 7 -9 8 -17 0 -7
-7 -19 -1 -38 20 -20 22 -34 29 -48 24 -15 -4 -21 0 -24 17 -4 20 -4 19 -6 -5
l-1 -28 -126 5 c-70 3 -129 8 -132 11 -10 10 21 26 41 21 18 -4 18 -4 1 15
-21 23 -34 24 -34 3 0 -10 -6 -14 -15 -10 -10 4 -15 -1 -15 -14 0 -15 -7 -20
-29 -20 -17 0 -33 5 -36 10 -3 6 3 10 14 10 12 0 21 4 21 9 0 15 -33 23 -41 9
-6 -9 -11 -9 -23 2 -9 7 -19 10 -23 7 -3 -4 2 -9 11 -13 26 -10 18 -24 -14
-24 -38 0 -52 27 -25 46 16 12 16 14 3 14 -11 0 -15 6 -11 21 5 17 13 20 57
18 28 -1 58 1 66 5 40 15 220 12 251 -5z m1099 1 c0 -5 -2 -10 -4 -10 -3 0 -8
5 -11 10 -3 6 -1 10 4 10 6 0 11 -4 11 -10z m190 -26 c0 -8 -4 -12 -10 -9 -5
3 -10 10 -10 16 0 5 5 9 10 9 6 0 10 -7 10 -16z m-300 -264 c9 -6 17 -5 22 3
6 9 10 9 16 1 4 -6 16 -9 27 -8 60 10 71 10 82 2 7 -6 19 -5 32 1 36 20 49 13
53 -26 3 -21 7 -44 9 -52 3 -11 -10 -15 -56 -17 -37 -1 -63 2 -67 9 -8 13 -58
17 -58 5 0 -13 -40 -9 -40 5 -1 7 -6 5 -14 -5 -7 -10 -16 -18 -20 -18 -12 0
-45 39 -37 44 5 3 11 19 14 36 7 32 13 35 37 20z m260 6 c0 -3 -4 -8 -10 -11
-5 -3 -10 -1 -10 4 0 6 5 11 10 11 6 0 10 -2 10 -4z m-1540 -36 c12 -16 58
-19 70 -5 9 11 17 12 31 5 10 -6 51 -13 91 -16 40 -3 74 -9 76 -13 1 -4 21 -3
42 3 28 7 52 7 79 0 24 -7 46 -7 55 -2 11 6 23 2 41 -16 33 -33 105 -40 115
-11 6 16 9 13 15 -18 7 -37 26 -60 32 -40 2 5 15 8 28 5 18 -3 25 0 25 12 0 9
7 16 16 16 10 0 14 -6 10 -15 -11 -29 4 -44 41 -43 21 1 41 -5 47 -13 6 -8 23
-20 39 -26 15 -7 27 -18 27 -25 0 -6 6 -4 13 6 19 26 61 12 83 -29 20 -37 42
-47 85 -38 15 3 41 1 56 -4 15 -5 39 -7 53 -3 24 6 106 -29 121 -53 4 -6 14
-1 25 11 14 17 21 19 37 10 13 -7 22 -7 30 1 7 7 14 7 24 0 10 -9 13 -7 13 7
1 18 1 18 14 2 15 -20 26 -14 26 14 0 31 25 20 53 -23 26 -39 28 -67 5 -53 -6
4 -9 1 -6 -7 7 -20 -34 -50 -49 -37 -7 6 -13 16 -13 23 0 17 -38 26 -44 11 -3
-7 -11 -4 -21 9 -20 25 -28 23 -35 -7 -5 -20 -11 -22 -45 -20 -46 4 -91 33
-87 56 2 9 -4 16 -14 16 -11 0 -15 -6 -11 -19 2 -10 2 -23 -2 -29 -9 -15 -61
-2 -61 14 0 8 -4 14 -10 14 -5 0 -10 -5 -10 -10 0 -7 -6 -7 -17 0 -75 45 -82
49 -77 35 3 -8 13 -16 22 -18 12 -3 10 -5 -5 -6 -13 0 -23 4 -23 9 0 6 -5 10
-11 10 -6 0 -8 -9 -4 -21 6 -19 5 -20 -8 -8 -14 13 -13 16 0 32 16 17 10 22
-24 18 -6 -1 -14 3 -18 9 -4 6 -12 5 -21 -5 -23 -22 -43 -18 -50 10 -6 24 -24
35 -24 15 0 -5 -16 0 -35 11 -21 13 -42 18 -55 14 -33 -10 -62 3 -55 26 4 11
1 26 -5 34 -10 12 -15 12 -36 -1 -28 -19 -74 -11 -74 12 0 14 -3 14 -15 4 -13
-11 -15 -8 -15 13 0 14 -5 29 -12 33 -8 5 -9 2 -5 -9 3 -10 4 -17 2 -17 -10 0
-45 40 -45 51 0 5 -4 7 -10 4 -5 -3 -10 -15 -10 -26 0 -19 -21 -49 -35 -49 -3
0 -4 10 0 23 6 22 6 22 -11 2 -16 -20 -16 -20 -10 1 7 24 -19 41 -38 25 -18
-15 -47 -7 -67 20 -10 13 -19 20 -19 14 0 -5 -4 -3 -10 5 -7 12 -12 12 -29 -4
-11 -10 -25 -15 -31 -11 -7 4 -66 9 -133 10 -67 2 -133 4 -146 4 -17 1 -22 5
-17 17 5 14 4 15 -9 4 -23 -19 -20 12 5 40 11 13 20 27 20 32 0 9 41 -9 50
-22z m1570 -25 c0 -8 6 -15 13 -15 8 0 7 -3 -3 -9 -8 -6 -18 -7 -22 -5 -12 7
-10 44 2 44 6 0 10 -7 10 -15z m-1030 -25 c0 -5 -5 -10 -11 -10 -5 0 -7 5 -4
10 3 6 8 10 11 10 2 0 4 -4 4 -10z m1025 -40 c-3 -5 -11 -10 -16 -10 -6 0 -7
5 -4 10 3 6 11 10 16 10 6 0 7 -4 4 -10z m-684 -58 c6 -16 5 -20 -6 -15 -8 3
-12 10 -9 15 4 6 0 15 -7 20 -12 8 -12 9 0 6 8 -2 18 -14 22 -26z m856 -4 c-3
-8 -6 -5 -6 6 -1 11 2 17 5 13 3 -3 4 -12 1 -19z m-752 -9 c9 -29 -4 -38 -21
-15 -18 25 -18 36 0 36 8 0 18 -9 21 -21z m38 -24 c4 -8 2 -17 -3 -20 -6 -4
-10 3 -10 14 0 25 6 27 13 6z m552 -85 c3 -5 -1 -10 -10 -10 -9 0 -13 5 -10
10 3 6 8 10 10 10 2 0 7 -4 10 -10z m5 -75 c0 -14 -4 -25 -9 -25 -12 0 -23 29
-15 41 10 18 24 9 24 -16z m-440 -35 c0 -5 -2 -10 -4 -10 -3 0 -8 5 -11 10 -3
6 -1 10 4 10 6 0 11 -4 11 -10z m380 -19 c0 -4 12 -6 26 -3 17 3 25 1 21 -5
-4 -6 -18 -13 -31 -15 -18 -4 -26 0 -29 14 -3 10 -1 18 4 18 5 0 9 -4 9 -9z
m40 -81 c0 -5 -4 -10 -10 -10 -5 0 -10 5 -10 10 0 6 5 10 10 10 6 0 10 -4 10
-10z"/>
<path d="M5066 6753 c-6 -14 -5 -15 5 -6 7 7 10 15 7 18 -3 3 -9 -2 -12 -12z"/>
<path d="M5295 6710 c-3 -5 1 -10 9 -10 9 0 16 5 16 10 0 6 -4 10 -9 10 -6 0
-13 -4 -16 -10z"/>
<path d="M5555 6600 c3 -5 8 -10 11 -10 2 0 4 5 4 10 0 6 -5 10 -11 10 -5 0
-7 -4 -4 -10z"/>
<path d="M5997 6503 c-10 -10 -8 -63 2 -63 5 0 11 9 14 20 3 11 1 20 -4 20 -4
0 -6 7 -3 15 6 16 2 20 -9 8z"/>
<path d="M6120 6481 c0 -16 5 -33 10 -36 6 -4 10 6 10 24 0 16 -4 33 -10 36
-6 4 -10 -6 -10 -24z"/>
<path d="M6077 6453 c-4 -3 -7 -11 -7 -17 0 -6 5 -5 12 2 6 6 9 14 7 17 -3 3
-9 2 -12 -2z"/>
<path d="M4958 6462 c9 -10 19 -17 21 -16 6 5 -20 34 -30 34 -5 0 -1 -8 9 -18z"/>
<path d="M5030 6450 c0 -16 7 -20 36 -20 28 0 35 4 32 17 -2 12 -14 18 -36 20
-26 2 -32 -1 -32 -17z"/>
<path d="M6180 6219 c0 -8 10 -25 21 -39 l20 -25 -17 35 c-20 43 -24 47 -24
29z"/>
<path d="M4920 6172 c0 -12 19 -26 26 -19 2 2 -2 10 -11 17 -9 8 -15 8 -15 2z"/>
<path d="M5020 6150 c0 -5 5 -10 11 -10 5 0 7 5 4 10 -3 6 -8 10 -11 10 -2 0
-4 -4 -4 -10z"/>
<path d="M5115 6120 c-3 -5 -1 -10 4 -10 6 0 11 5 11 10 0 6 -2 10 -4 10 -3 0
-8 -4 -11 -10z"/>
<path d="M5400 6061 c0 -6 5 -13 10 -16 6 -3 10 1 10 9 0 9 -4 16 -10 16 -5 0
-10 -4 -10 -9z"/>
<path d="M5666 5951 c-3 -5 1 -14 9 -21 10 -9 15 -9 15 -1 0 6 -6 11 -12 12
-7 0 -4 4 7 9 16 7 17 9 3 9 -9 1 -19 -3 -22 -8z"/>
<path d="M6250 5828 c0 -19 2 -20 10 -8 13 19 13 30 0 30 -5 0 -10 -10 -10
-22z"/>
<path d="M7880 7125 c-7 -9 -8 -15 -2 -15 5 0 12 7 16 15 3 8 4 15 2 15 -2 0
-9 -7 -16 -15z"/>
<path d="M6220 6770 c0 -5 5 -10 10 -10 6 0 10 5 10 10 0 6 -4 10 -10 10 -5 0
-10 -4 -10 -10z"/>
<path d="M9115 6510 c-3 -5 -1 -10 4 -10 6 0 11 5 11 10 0 6 -2 10 -4 10 -3 0
-8 -4 -11 -10z"/>
<path d="M9385 6060 c-3 -5 -1 -10 4 -10 6 0 11 5 11 10 0 6 -2 10 -4 10 -3 0
-8 -4 -11 -10z"/>
<path d="M9475 5550 c3 -5 8 -10 11 -10 2 0 4 5 4 10 0 6 -5 10 -11 10 -5 0
-7 -4 -4 -10z"/>
<path d="M931 4874 c0 -11 3 -14 6 -6 3 7 2 16 -1 19 -3 4 -6 -2 -5 -13z"/>
<path d="M1105 4540 c3 -5 11 -10 16 -10 6 0 7 5 4 10 -3 6 -11 10 -16 10 -6
0 -7 -4 -4 -10z"/>
<path d="M3472 2687 c-6 -7 -9 -30 -7 -52 2 -21 -1 -45 -7 -52 -7 -9 -7 -13 0
-13 7 0 10 -54 11 -155 0 -85 3 -160 7 -166 3 -6 0 -16 -7 -21 -9 -6 13 -8 66
-5 116 6 203 43 276 118 32 32 54 60 52 63 -3 3 -1 11 5 19 6 7 15 31 20 53
21 92 -44 145 -242 199 -100 28 -158 32 -174 12z"/>
<path d="M5215 2712 c-62 -5 -65 -12 -63 -123 l3 -99 70 5 c104 8 157 29 205
81 32 35 39 48 30 62 -19 34 -35 49 -60 56 -39 12 -141 21 -185 18z"/>
<path d="M4185 2513 c-47 -16 -79 -42 -55 -44 104 -6 156 -6 173 0 18 7 17 9
-13 34 -35 30 -47 31 -105 10z"/>
<path d="M5940 2370 c-40 -7 -91 -32 -108 -53 -11 -13 -13 -86 -2 -85 3 1 18
-4 33 -10 38 -16 73 -15 126 4 63 22 81 46 74 98 -3 22 -6 42 -7 42 -7 6 -89
9 -116 4z"/>
<path d="M7295 2513 c-47 -16 -79 -42 -55 -44 104 -6 156 -6 173 0 18 7 17 9
-13 34 -35 30 -47 31 -105 10z"/>
</g>
</svg>
